<?xml version="1.0" encoding="iso-8859-1"?>
<!-- Generator: Adobe Illustrator 19.0.0, SVG Export Plug-In . SVG Version: 6.00 Build 0)  -->
<svg version="1.1" id="Capa_1" xmlns="http://www.w3.org/2000/svg" xmlns:xlink="http://www.w3.org/1999/xlink" x="0px" y="0px"
	 viewBox="0 0 512 512" style="enable-background:new 0 0 512 512;" xml:space="preserve">
<path style="fill:#D5011D;" d="M256,0l-60.001,256.003L256,512c0.004,0.005,11.382-13.225,11.382-13.225
	c20.074-23.368,49.097-36.77,79.627-36.77h58.993c41.355,0,75.001-33.645,75.001-75.001V0H256z"/>
<path style="fill:#FF0021;" d="M30.998,0v387.004c0,41.355,33.645,75.001,75.001,75.001h59.001c30.529,0,59.553,13.402,79.627,36.77
	L256,512V0H30.998z"/>
<rect x="151.001" y="252.382" style="fill:#FFFFFF;" width="30" height="75.001"/>
<rect x="331.003" y="252.382" style="fill:#EFF6F9;" width="30" height="75.001"/>
<g>
	<rect x="211.002" y="267.383" style="fill:#FFFFFF;" width="30" height="134.621"/>
	<rect x="271.002" y="267.383" style="fill:#FFFFFF;" width="30" height="134.621"/>
</g>
<g>
	<rect x="391.003" y="192.382" style="fill:#D1DEE4;" width="30" height="135.001"/>
	<path style="fill:#D1DEE4;" d="M391.001,117.385c-33.084,0-60.001,26.916-60.001,60.001H256v90.001h90.001
		c41.355,0,75.001-33.645,75.001-75.001v-75.001H391.001z"/>
</g>
<g>
	<rect x="90.998" y="192.382" style="fill:#EFF6F9;" width="30" height="135.001"/>
	<path style="fill:#EFF6F9;" d="M120.999,117.385c33.084,0,60.001,26.916,60.001,60.001H256v90.001h-90.001
		c-41.355,0-75.001-33.645-75.001-75.001v-75.001H120.999z"/>
	<path style="fill:#EFF6F9;" d="M256,63.666l-30,124.36l30,124.36c24.813,0,45-20.187,45-45V132.384
		C301,101.694,282.461,75.264,256,63.666z"/>
</g>
<polygon style="fill:#FFD237;" points="180.999,57.385 180.999,87.385 231,87.385 211,57.385 "/>
<path style="fill:#FFFFFF;" d="M226,57.385h-15v210.002c0,24.813,20.187,45,45,45V63.666C246.806,59.637,236.663,57.385,226,57.385z
	"/>
<g>
</g>
<g>
</g>
<g>
</g>
<g>
</g>
<g>
</g>
<g>
</g>
<g>
</g>
<g>
</g>
<g>
</g>
<g>
</g>
<g>
</g>
<g>
</g>
<g>
</g>
<g>
</g>
<g>
</g>
</svg>
